<?xml version="1.0" encoding="UTF-8" standalone="no"?>
<svg
   xmlns:dc="http://purl.org/dc/elements/1.1/"
   xmlns:cc="http://creativecommons.org/ns#"
   xmlns:rdf="http://www.w3.org/1999/02/22-rdf-syntax-ns#"
   xmlns:svg="http://www.w3.org/2000/svg"
   xmlns="http://www.w3.org/2000/svg"
   xmlns:sodipodi="http://sodipodi.sourceforge.net/DTD/sodipodi-0.dtd"
   xmlns:inkscape="http://www.inkscape.org/namespaces/inkscape"
   height="944.63617"
   width="737.14258"
   version="1.1"
   id="svg4"
   sodipodi:docname="fire.svg"
   inkscape:version="0.92.3 (2405546, 2018-03-11)">
  <metadata
     id="metadata10">
    <rdf:RDF>
      <cc:Work
         rdf:about="">
        <dc:format>image/svg+xml</dc:format>
        <dc:type
           rdf:resource="http://purl.org/dc/dcmitype/StillImage" />
      </cc:Work>
    </rdf:RDF>
  </metadata>
  <defs
     id="defs8" />
  <sodipodi:namedview
     pagecolor="#ffffff"
     bordercolor="#666666"
     borderopacity="1"
     objecttolerance="10"
     gridtolerance="10"
     guidetolerance="10"
     inkscape:pageopacity="0"
     inkscape:pageshadow="2"
     inkscape:window-width="1853"
     inkscape:window-height="1025"
     id="namedview6"
     showgrid="false"
     inkscape:zoom="0.23046875"
     inkscape:cx="-465.13707"
     inkscape:cy="476.48788"
     inkscape:window-x="67"
     inkscape:window-y="27"
     inkscape:window-maximized="1"
     inkscape:current-layer="svg4" />
  <path
     d="m 310.64259,1.1483164 c 50,134.0000036 24,207.0000036 -32,265.0000036 -61,64 -156,112 -223.000003,206 -89,125 -104,400 217.000003,472 -135,-71 -164,-277 -18,-406 -38,125 32,205 119,176 85,-29 141,32 139,102 -1,48 -20,89 -69,112 209,-37 293,-210 293,-342 0,-174 -155,-198 -77,-344 -93,8 -125,69 -116,169 6,66 -63,111 -114,81 -41,-25 -40,-73 -4,-109 77,-76 107,-251 -115,-382.0000036 z"
     id="path2"
     style="fill:#00ff00;fill-opacity:1;stroke:#00c800;stroke-opacity:1"
     inkscape:connector-curvature="0" />
</svg>
